<?xml version="1.0" encoding="UTF-8" standalone="no"?>
<svg
   xmlns:dc="http://purl.org/dc/elements/1.1/"
   xmlns:cc="http://creativecommons.org/ns#"
   xmlns:rdf="http://www.w3.org/1999/02/22-rdf-syntax-ns#"
   xmlns:svg="http://www.w3.org/2000/svg"
   xmlns="http://www.w3.org/2000/svg"
   xmlns:sodipodi="http://sodipodi.sourceforge.net/DTD/sodipodi-0.dtd"
   xmlns:inkscape="http://www.inkscape.org/namespaces/inkscape"
   sodipodi:docname="istokbet-logo-1.svg"
   inkscape:version="1.0beta2 (2b71d25, 2019-12-03)"
   id="svg8"
   version="1.1"
   viewBox="0 0 165.10008 95.324883"
   height="95.324883mm"
   width="165.10008mm">
  <defs
     id="defs2" />
  <sodipodi:namedview
     inkscape:window-maximized="0"
     inkscape:window-y="33"
     inkscape:window-x="0"
     inkscape:window-height="771"
     inkscape:window-width="1280"
     fit-margin-bottom="0"
     fit-margin-right="0"
     fit-margin-left="0"
     fit-margin-top="0"
     showgrid="false"
     inkscape:document-rotation="0"
     inkscape:current-layer="layer1"
     inkscape:document-units="mm"
     inkscape:cy="280.18015"
     inkscape:cx="251.47734"
     inkscape:zoom="0.49497475"
     inkscape:pageshadow="2"
     inkscape:pageopacity="0.0"
     borderopacity="1.0"
     bordercolor="#666666"
     pagecolor="#ffffff"
     id="base" />
  <metadata
     id="metadata5">
    <rdf:RDF>
      <cc:Work
         rdf:about="">
        <dc:format>image/svg+xml</dc:format>
        <dc:type
           rdf:resource="http://purl.org/dc/dcmitype/StillImage" />
        <dc:title></dc:title>
      </cc:Work>
    </rdf:RDF>
  </metadata>
  <g
     transform="translate(-36.63966,-59.363605)"
     id="layer1"
     inkscape:groupmode="layer"
     inkscape:label="Layer 1">
    <path
       inkscape:connector-curvature="0"
       id="path847"
       d="m 116.90052,109.23293 c -0.86989,-0.0643 -1.7398,-0.17697 -1.93312,-0.25033 -0.33225,-0.12608 -0.30338,-0.16528 0.5272,-0.71586 2.14373,-1.42106 4.6869,-3.53469 7.2805,-6.05086 l 1.28036,-1.24213 2.38612,-0.2482 c 5.17693,-0.53851 9.88986,-1.86934 13.48928,-3.809085 l 1.26427,-0.681319 -0.4358,0.767365 c -3.86918,6.812989 -11.45012,11.586069 -19.4337,12.235779 -2.06376,0.16794 -2.08151,0.16792 -4.42511,-0.005 z m -5.64864,-1.11064 c -0.33139,-0.1069 -1.28036,-0.49726 -2.10883,-0.86748 -2.85249,-1.27466 -5.33372,-2.98996 -7.6062,-5.25827 -1.853248,-1.84983 -3.275438,-3.794525 -4.464068,-6.104144 l -0.8496,-1.650826 0.0868,-1.292887 c 0.13995,-2.084198 1.1504,-5.612532 2.58697,-9.033247 l 0.71476,-1.701971 0.472698,0.0728 c 0.25998,0.04005 0.84551,0.108366 1.30116,0.151831 1.35099,0.128866 13.30067,1.594718 13.67503,1.6775 0.18934,0.04188 0.40564,0.237922 0.48066,0.435682 0.73942,1.949079 5.04238,11.254134 6.3172,13.66081 1.06956,2.019172 1.23314,1.542939 -1.34282,3.909522 -3.30216,3.03374 -7.63265,6.2342 -8.39604,6.20514 -0.14587,-0.006 -0.53635,-0.0976 -0.86774,-0.20446 z m 11.16527,-12.503801 c -0.95367,-1.930399 -2.61577,-5.496138 -3.69355,-7.923868 l -1.95961,-4.414055 0.23543,-0.567618 c 0.8168,-1.969294 4.73778,-6.882523 9.40702,-11.78757 l 1.6273,-1.709484 1.24941,0.381982 c 3.20547,0.980005 6.80169,3.242775 9.92647,6.245826 l 1.45397,1.397328 0.32162,1.285122 c 0.71207,2.845337 0.71426,8.046503 0.006,13.658002 -0.2274,1.800962 -0.35563,2.386142 -0.55675,2.540752 -0.58961,0.453256 -3.97333,2.009791 -5.30742,2.44144 -3.38917,1.096593 -7.80707,1.959178 -10.04441,1.96114 l -0.93129,5.71e-4 z m 20.30605,-3.509814 c 0.67785,-6.154229 0.67011,-10.530981 -0.0241,-13.629172 -0.29933,-1.335856 -0.34087,-2.509599 -0.0974,-2.753552 0.19813,-0.198565 1.0013,2.548026 1.36022,4.651543 0.30463,1.785306 0.30357,5.860216 -0.002,7.809979 -0.38183,2.436095 -1.444,5.804182 -1.2366,3.921202 z M 94.862781,89.995117 c -0.275256,-0.924685 -0.568907,-3.066103 -0.649425,-4.735849 -0.183819,-3.811895 0.707655,-8.081205 2.457826,-11.770635 0.36804,-0.775843 0.69326,-1.386476 0.72271,-1.356967 0.0294,0.0295 0.12631,1.717245 0.21523,3.750503 0.0889,2.033264 0.22765,4.098594 0.30827,4.589615 0.12729,0.775312 0.10588,0.983857 -0.16272,1.585081 -0.79642,1.782647 -1.82987,4.695367 -2.388061,6.730577 -0.27873,1.016281 -0.443346,1.410873 -0.50383,1.207675 z M 109.14305,81.69334 c -2.73394,-0.354983 -5.97428,-0.747509 -7.20076,-0.872278 -1.22648,-0.12477 -2.254588,-0.251542 -2.284698,-0.281713 -0.19084,-0.19125 -0.4412,-4.399876 -0.44805,-7.53165 l -0.008,-3.703078 0.938518,-1.137279 c 0.9422,-1.141747 2.41366,-2.536439 3.95697,-3.750537 3.34297,-2.62985 7.91785,-4.489648 12.25052,-4.980133 1.08109,-0.122384 1.31172,-0.103704 1.895,0.153486 2.51578,1.109333 5.77224,4.237125 7.79101,7.483187 l 0.69161,1.112083 -1.63607,1.752733 c -5.1951,5.565529 -8.71841,9.982836 -9.53143,11.949927 -0.25615,0.619728 -0.10685,0.624258 -6.41453,-0.194748 z m 30.56929,-7.675556 c -3.58529,-3.23626 -7.14889,-5.297961 -10.84553,-6.274628 -0.49129,-0.129802 -0.68098,-0.287892 -0.96597,-0.805062 -1.32055,-2.396429 -3.75963,-5.290172 -5.71307,-6.778042 -1.10405,-0.840914 -1.0589,-0.863286 1.04466,-0.517597 7.2826,1.1968 13.64663,5.516986 17.42616,11.829659 l 0.84036,1.403575 -0.18707,1.049032 c -0.10288,0.576969 -0.23422,1.078249 -0.29186,1.113943 -0.0576,0.03572 -0.64609,-0.423695 -1.30768,-1.02088 z"
       style="fill:#ffbb1a;fill-opacity:1;stroke-width:0.150795" />
    <path
       inkscape:connector-curvature="0"
       id="path863"
       d="m 52.91153,154.36767 c -1.33435,-0.46643 -2.42954,-1.45684 -3.06693,-2.77352 -0.49172,-1.01576 -0.62935,-1.82428 -0.72184,-4.24053 l -0.11427,-2.98547 h 3.60517 3.60516 v 2.06375 c 0,1.25236 0.12483,2.18858 0.3175,2.38125 0.18868,0.18867 1.09743,0.3175 2.23965,0.3175 1.62959,0 1.96384,-0.0779 2.19605,-0.51177 0.35623,-0.66563 0.35623,-6.77749 0,-7.44312 -0.24511,-0.45799 -0.57741,-0.51177 -3.16198,-0.51177 -3.82191,0 -5.3571,-0.34727 -6.63366,-1.50057 -1.74773,-1.57897 -1.96901,-2.58564 -1.96901,-8.95754 0,-5.44679 0.0142,-5.59082 0.67591,-6.87675 0.40888,-0.79452 1.12314,-1.62799 1.8079,-2.10961 l 1.13199,-0.79617 4.96824,-0.0863 c 3.06972,-0.0533 5.38216,0.0252 6.05142,0.20539 2.52334,0.67947 3.76075,2.7188 3.9599,6.5262 l 0.12986,2.48282 h -3.5953 -3.5953 l -0.0788,-1.65365 -0.0788,-1.65365 h -2.11667 -2.11666 v 3.70417 3.70417 l 3.70416,0.14185 c 3.14185,0.12031 3.89468,0.23422 4.95909,0.75031 1.38733,0.67266 2.12951,1.55274 2.7194,3.22466 0.5614,1.59119 0.5562,11.23916 -0.007,13.13594 -0.47171,1.58843 -1.9494,3.0714 -3.48549,3.49795 -1.29295,0.35903 -10.28151,0.33081 -11.32966,-0.0356 z m 42.90356,-0.0667 c -1.25989,-0.44922 -2.17008,-1.2799 -2.91108,-2.65678 -0.5611,-1.04261 -0.56956,-1.25284 -0.56956,-14.1552 0,-12.99868 0.004,-13.10506 0.58371,-14.18809 0.72909,-1.36297 1.91585,-2.37841 3.19482,-2.73361 1.28656,-0.35732 10.74759,-0.35396 12.03755,0.004 1.32676,0.36844 2.66912,1.58419 3.27269,2.96402 0.45018,1.02917 0.49684,2.12657 0.56892,13.38011 0.0689,10.75549 0.0251,12.44288 -0.3573,13.75834 -0.51797,1.78196 -1.86036,3.20851 -3.47423,3.69203 -1.5496,0.46428 -11.00059,0.41445 -12.34552,-0.0651 z m 8.50498,-4.95865 c 0.45674,-0.45674 0.45674,-23.24993 0,-23.70667 -0.4214,-0.4214 -3.97068,-0.4214 -4.39208,0 -0.45674,0.45674 -0.45674,23.24993 0,23.70667 0.18732,0.18732 1.08773,0.3175 2.19604,0.3175 1.10831,0 2.00872,-0.13018 2.19604,-0.3175 z M 36.63966,137.48899 v -16.66876 h 3.70417 3.70416 v 16.66876 16.66874 h -3.70416 -3.70417 z m 39.6875,3.18425 v -13.48449 l -2.71198,-0.0754 -2.71198,-0.0754 -0.0745,-3.10885 -0.0745,-3.10886 h 9.13652 9.13652 v 3.17501 3.175 h -2.64583 -2.64584 v 13.49375 13.49374 h -3.70416 -3.70417 z m 40.74583,-3.18425 v -16.66876 h 3.70417 3.70417 v 6.87917 6.87917 h 0.8659 0.8659 l 2.52766,-6.81302 2.52766,-6.81303 3.35331,-0.074 c 1.8724,-0.0413 3.35331,0.0314 3.35331,0.16474 0,0.13133 -1.24046,3.5768 -2.75659,7.65658 l -2.75659,7.41778 3.38741,9.02008 3.38741,9.02008 h -3.78266 -3.78265 l -0.79184,-2.07361 c -0.43552,-1.1405 -1.5393,-4.05753 -2.45286,-6.4823 l -1.66102,-4.40867 h -1.14217 -1.14218 v 6.48229 6.48229 h -3.70417 -3.70417 z m 24.34167,0 v -16.66876 h 7.58938 c 7.1718,0 7.6526,0.0306 8.73844,0.55625 2.21455,1.07204 2.97028,2.73583 3.17794,6.99638 0.17663,3.62406 -0.24703,5.37856 -1.62013,6.70943 l -0.92122,0.89288 0.82465,0.55847 c 0.45356,0.30716 1.10141,1.08321 1.43967,1.72456 0.58001,1.09974 0.61502,1.44714 0.61502,6.10443 0,3.80476 -0.0959,5.21971 -0.41766,6.16408 -0.50057,1.4691 -2.03358,2.94954 -3.46622,3.34736 -0.60225,0.16723 -4.0325,0.28131 -8.48539,0.28219 l -7.47448,0.001 z m 12.30312,7.01145 v -4.49791 l -2.44739,-0.0761 -2.4474,-0.0761 v 4.65006 4.65007 l 2.4474,-0.0761 2.44739,-0.0761 z M 153.3116,134.0668 c 0.39535,-0.73872 0.35803,-7.50034 -0.0436,-7.90198 -0.19267,-0.19267 -1.12889,-0.3175 -2.38125,-0.3175 H 148.823 v 4.36562 4.36563 h 2.10736 c 1.81269,0 2.14565,-0.0716 2.38125,-0.51177 z m 12.70931,3.42219 v -16.66876 h 7.81387 7.81387 l -0.0748,2.97657 -0.0748,2.97656 -4.0349,0.073 -4.03489,0.073 v 3.69001 3.69001 l 3.77031,0.0734 3.77031,0.0734 v 2.91041 2.91042 l -3.77031,0.0734 -3.77031,0.0734 v 3.8223 3.82231 l 4.03489,0.073 4.0349,0.073 0.0748,2.97656 0.0748,2.97656 h -7.81387 -7.81387 z m 23.01874,3.18425 v -13.48449 l -2.71197,-0.0754 -2.71198,-0.0754 -0.0745,-3.10885 -0.0745,-3.10886 h 9.13652 9.13652 v 3.17501 3.175 h -2.64583 -2.64583 v 13.49375 13.49374 h -3.70417 -3.70417 z"
       style="fill:#ffbb1a;fill-opacity:1;stroke-width:0.264583" />
  </g>
</svg>
